<?xml version="1.0" encoding="UTF-8"?>
<svg width="705" height="555" version="1.1" viewBox="0 0 705 555" xmlns="http://www.w3.org/2000/svg" xmlns:cc="http://creativecommons.org/ns#" xmlns:dc="http://purl.org/dc/elements/1.1/" xmlns:rdf="http://www.w3.org/1999/02/22-rdf-syntax-ns#">
 <metadata>
  <rdf:RDF>
   <cc:Work rdf:about="">
    <dc:format>image/svg+xml</dc:format>
    <dc:type rdf:resource="http://purl.org/dc/dcmitype/StillImage"/>
    <dc:title/>
   </cc:Work>
  </rdf:RDF>
 </metadata>
 <g stroke-width=".71312"></g>
 <g>
  <path d="m313.16 330.31c-24.924-4.0399-45.587-18.062-59.488-40.369-6.9589-11.167-8.6137-15.371-6.9468-17.651 1.3325-1.8223 14.896-2.8181 63.592-4.6691 13.962-0.53069 71.87 1.3547 85.342 2.7786 8.5466 0.90332 8.7502 2.4731 2.021 15.576-7.3121 14.238-20.633 27.571-34.832 34.863-5.5084 2.8287-13.659 6.075-18.112 7.214-9.6012 2.4556-24.001 3.485-31.575 2.2573z" fill="#f4d7c8" stroke-width="1.0855"/>
  <path d="m89.533 286.84c1.0743-1.1871 7.1338-4.7963 13.466-8.0206 29.415-14.978 71.709-28.158 111.68-34.8 9.1194-1.5155 18.016-3.4978 19.771-4.405 3.4682-1.7935 3.8192-2.7256 7.5651-20.089 2.9782-13.805 8.1167-24.082 23.067-46.134 13.747-20.277 19.487-30.87 24.635-45.46 6.5466-18.553 8.0375-35.271 4.9489-55.492-0.91189-5.9703-1.9591-13.053-2.3271-15.74l-0.66911-4.8848 2.3859 2.1153c4.0776 3.6152 9.6375 13.862 13.02 23.996 4.8844 14.634 7.0198 31.585 6.2832 49.874-0.69202 17.183-2.1739 24.955-8.6539 45.386-4.0869 12.886-4.5387 15.402-4.52 25.172 0.0184 9.6268 0.34864 11.484 2.9179 16.413 6.3245 12.133 19.089 18.027 33.839 15.626 3.3185-0.5401 7.8741-1.8537 10.123-2.9191 5.9016-2.7952 13.074-10.417 16.174-17.187 4.6987-10.263 5.2847-16.602 3.2748-35.427-2.8485-26.68-2.7543-26.857 8.1198-15.27 18.387 19.593 27.639 36.092 32.355 57.703 4.7204 21.628 7.0003 23.453 35.42 28.351 35.391 6.0996 61.53 13.985 89.844 27.105 17.557 8.1351 25.691 12.569 25.691 14.005 0 1.152-4.6391 0.11784-23.938-5.3363-46.85-13.241-102.23-22.133-149.74-24.047-32.498-1.3087-113.79-0.60519-131.89 1.1413-64.929 6.2659-110.6 14.336-148.18 26.183-15.811 4.9848-17.45 5.2242-14.66 2.1412z" fill="#f4d7c8" stroke-width="1.0855"/>
  <path d="m328.46 211.11c-4.6166-2.4808-8.8249-6.6042-10.699-10.484-3.9688-8.2139-3.9802-17.44-0.0344-27.747 6.3383-16.556 6.8979-20.331 6.8832-46.438-0.0142-25.115-0.3061-27.281-5.3873-39.981-1.4627-3.6558-2.6594-6.9107-2.6594-7.233 0-1.6495 9.4242 11.927 13.79 19.867 9.9253 18.048 17.493 36.826 22.004 54.596 2.5814 10.169 3.3302 27.89 1.5351 36.328-2.907 13.665-10.678 22.444-19.792 22.361-1.8359-0.0169-4.3743-0.58754-5.6408-1.2681zm11.137-36.12c1.7314-1.5654 2.4148-2.9489 2.6448-5.3543 0.43709-4.57-1.2494-6.4416-6.2363-6.9208-3.3229-0.31928-4.1027-0.12207-5.5161 1.395-1.9633 2.1074-2.1969 6.629-0.51088 9.8894 1.9512 3.7732 6.0716 4.1976 9.6184 0.99069z" fill="#b7b6be" stroke-width=".76757"/>
  <path d="m303.03 443.02c-1.1921-1.8164-1.4974-4.189-1.8167-14.118-0.40625-12.633-1.0397-15.093-4.0519-15.732-0.93769-0.199-4.3339-0.87635-7.5471-1.5052-3.2132-0.62887-9.6361-2.3698-14.273-3.8689-4.6369-1.499-9.2876-2.7255-10.335-2.7255-2.3989 0-3.8299 1.5867-10.101 11.2-6.0783 9.318-6.6419 9.8416-9.9305 9.2246-2.5069-0.47029-25.966-14.272-29.539-17.378-2.386-2.0746-2.0108-3.7721 2.6048-11.786 5.8282-10.119 6.7909-14.329 4.2322-18.509-1.9523-3.1895-22.03-22.863-24.126-23.641-2.6322-0.97626-6.455 0.0556-13.901 3.7522-4.0068 1.9891-7.8903 3.3859-9.414 3.3859-3.1744 0-3.0341 0.21278-13.441-20.396-5.7122-11.312-7.5965-15.735-7.0888-16.642 0.38034-0.67962 3.1399-3.0725 6.1323-5.3176 14.112-10.587 14.508-11.646 10.523-28.102-2.3146-9.5577-2.1278-10.815 1.7507-11.78 4.3826-1.0906 29.165-4.5017 32.688-4.4992 3.2215 2e-3 3.7351 0.25438 5.0866 2.4971 0.82679 1.372 2.1057 4.3943 2.842 6.7162 11.007 34.71 34.865 63.046 66.217 78.648 13.014 6.4764 24.942 9.1067 41.244 9.0954 13.105-9e-3 21.821-1.3029 33.088-4.9119 29.684-9.5085 49.731-25.319 65.115-51.353 4.0689-6.8858 8.3658-16.39 14.405-31.863l3.2954-8.4432 3.6581-0.23444c2.012-0.12895 9.2655 0.64095 16.119 1.7109 16.946 2.6455 19.755 3.2085 20.693 4.1463 0.81805 0.81805-0.12341 5.2376-4.2798 20.091-2.6487 9.4657-3.027 8.8335 10.895 18.207 12.052 8.1141 11.905 7.7896 7.472 16.54-8.3265 16.435-15.395 29.15-16.424 29.545-1.2888 0.49455-10.468-3.8941-18.241-8.7209-2.9906-1.8571-6.2006-3.3765-7.1333-3.3765-1.0697 0-3.0297 1.4755-5.3086 3.9964-1.987 2.198-7.8439 8.2155-13.015 13.372s-9.4027 9.8802-9.4027 10.497c0 0.61645 1.6736 4.5294 3.7192 8.6954 2.0456 4.166 4.6936 9.9194 5.8845 12.785l2.1653 5.2107-1.5485 2.0812c-0.85166 1.1446-4.1947 3.6355-7.429 5.5352-3.2343 1.8997-9.8617 5.8083-14.728 8.6858-4.8659 2.8774-9.4383 5.1182-10.161 4.9793-0.75223-0.1445-3.6108-4.2672-6.6869-9.6439-6.5947-11.527-9.0852-14.213-13.168-14.199-2.6164 8e-3 -14.531 3.7656-27.324 8.6162-2.5447 0.96484-4.7927 2.3773-5.304 3.3326-0.48802 0.91188-1.309 6.3588-1.8243 12.104-0.99944 11.143-1.7149 13.438-4.5212 14.505-0.97502 0.37071-9.5488 0.92168-19.053 1.2244l-17.28 0.5504z" fill="#b7b6be" stroke-width=".76757"/>
  <path d="m334.1 177.08c-1.1469-0.15642-2.1375-0.6699-2.9842-1.5468-0.72584-0.75182-1.2964-1.7444-1.6876-2.9358-0.3764-1.1464-0.53336-2.1616-0.53336-3.4497 0-2.3905 0.70616-4.2445 2.0911-5.4902 0.59351-0.53384 1.0798-0.79628 1.7602-0.94993 0.83866-0.18939 3.4369-0.0333 5.0433 0.30308 3.2843 0.68764 4.5955 2.3727 4.4739 5.7497-0.0638 1.7738-0.36557 3.0738-0.9608 4.1395-0.56489 1.0114-1.6991 2.1748-2.925 3.0001-0.41168 0.27718-1.3734 0.75526-1.807 0.89826-0.79399 0.26187-1.7865 0.37506-2.4706 0.28176z" fill="#f4d7c8" stroke-width=".047973"/>
 </g>
</svg>
